#!OML:ASF H:\Punching\Project 1\Capture day 1\Session 1\female.ASF
:FULLY-SPECIFIED
:DEGREES
4542
root 1.00981 15.7399 -5.17057 369.395 -20.3893 1.19536
lowerback -6.16487 -1.22379 0.684073
upperback -7.41511 -1.73001 -0.519651
thorax -4.25958 -0.941809 -0.957842
lowerneck -14.3653 3.23792 7.49515
upperneck 38.2008 5.35356 -7.95391
head 16.6284 2.10386 -3.95443
rclavicle -3.68373e-015 -1.2424e-015
rhumerus -40.2712 -6.77357 -75.9119
rradius 23.1973
rwrist 14.583
rhand -12.4059 -3.83019
rfingers 7.12502
rthumb 13.6658 -33.3615
lclavicle -3.68373e-015 -1.2424e-015
lhumerus -42.2975 10.2898 72.3338
lradius 31.9663
lwrist -23.8047
lhand -7.97048 13.545
lfingers 7.12502
lthumb 17.9372 42.7379
rfemur -20.5908 16.2665 10.062
rtibia 25.7977
rfoot -19.1499 3.32922
rtoes -6.22018
lfemur -12.8737 -19.1361 -12.5825
ltibia 19.1866
lfoot -17.7624 -12.3445
ltoes -0.982501
4543
root 0.92774 15.7475 -5.19254 369.622 -19.5717 0.87053
lowerback -6.21191 -1.18296 1.09105
upperback -7.43263 -1.68452 -0.473996
thorax -4.26229 -0.936741 -1.13803
lowerneck -14.2949 3.36948 7.67672
upperneck 38.2201 5.56382 -8.06225
head 16.6601 2.21061 -3.99847
rclavicle -2.47735e-014 9.9206e-015
rhumerus -39.9118 -6.62388 -75.9546
rradius 23.3818
rwrist 14.7396
rhand -11.9813 -4.47109
rfingers 7.12502
rthumb 14.075 -33.9744
lclavicle -2.47735e-014 9.9206e-015
lhumerus -42.6169 11.1024 71.407
lradius 31.7275
lwrist -23.7058
lhand -7.98971 13.7736
lfingers 7.12502
lthumb 17.9187 42.9681
rfemur -20.285 16.0729 10.8239
rtibia 25.4821
rfoot -18.9663 2.9154
rtoes -5.62588
lfemur -13.8963 -18.9954 -11.8936
ltibia 20.6015
lfoot -17.6619 -12.4611
ltoes -0.968694
4544
root 0.847437 15.7561 -5.21585 369.846 -18.75 0.60875
lowerback -6.27024 -1.15327 1.42484
upperback -7.4543 -1.65249 -0.435258
thorax -4.26131 -0.935167 -1.28498
lowerneck -14.2464 3.50037 7.84578
upperneck 38.2502 5.76548 -8.1426
head 16.7013 2.31541 -4.02957
rclavicle 1.98649e-014 3.67441e-015
rhumerus -39.5255 -6.49803 -75.9487
rradius 23.5768
rwrist 14.9362
rhand -11.5272 -5.18514
rfingers 7.12502
rthumb 14.5126 -34.6576
lclavicle 1.98649e-014 3.67441e-015
lhumerus -42.9488 11.8066 70.5592
lradius 31.5504
lwrist -23.4326
lhand -7.98368 14.0352
lfingers 7.12502
lthumb 17.9245 43.2292
rfemur -20.021 15.8282 11.5111
rtibia 25.1617
rfoot -18.794 2.50173
rtoes -5.1412
lfemur -14.9744 -18.7463 -11.2969
ltibia 22.0423
lfoot -17.4683 -12.5489
ltoes -1.08917
4545
root 0.768611 15.7654 -5.23975 370.041 -17.9109 0.40946
lowerback -6.32312 -1.13877 1.68663
upperback -7.471 -1.63892 -0.403314
thorax -4.25667 -0.939464 -1.39906
lowerneck -14.201 3.62559 7.99243
upperneck 38.2795 5.95332 -8.19225
head 16.7395 2.41521 -4.04485
rclavicle -9.30153e-015 4.46955e-015
rhumerus -39.1165 -6.39041 -75.8986
rradius 23.7578
rwrist 15.0924
rhand -11.1424 -5.85213
rfingers 7.12502
rthumb 14.8833 -35.2975
lclavicle -9.30153e-015 4.46955e-015
lhumerus -43.2891 12.3881 69.8049
lradius 31.4392
lwrist -22.9814
lhand -7.98557 14.3103
lfingers 7.12502
lthumb 17.9227 43.5044
rfemur -19.7629 15.5651 12.1306
rtibia 24.8433
rfoot -18.6341 2.05364
rtoes -4.73688
lfemur -16.0709 -18.429 -10.8053
ltibia 23.5107
lfoot -17.1709 -12.5669
ltoes -1.26579
4546
root 0.691045 15.7752 -5.26434 370.205 -17.0444 0.269703
lowerback -6.3645 -1.1402 1.87688
upperback -7.48135 -1.6445 -0.378317
thorax -4.25042 -0.949941 -1.48059
lowerneck -14.1634 3.74314 8.1245
upperneck 38.3094 6.1247 -8.2195
head 16.7765 2.50889 -4.05008
rclavicle 1.95174e-015 -1.22687e-015
rhumerus -38.7048 -6.2407 -75.8384
rradius 23.941
rwrist 15.0842
rhand -10.9021 -6.34967
rfingers 7.12502
rthumb 15.1148 -35.7778
lclavicle 1.95174e-015 -1.22687e-015
lhumerus -43.619 12.8403 69.1513
lradius 31.376
lwrist -22.3742
lhand -7.98957 14.5814
lfingers 7.12502
lthumb 17.9189 43.7759
rfemur -19.505 15.2952 12.6863
rtibia 24.531
rfoot -18.4857 1.55414
rtoes -4.40815
lfemur -17.175 -18.0769 -10.4195
ltibia 25.0117
lfoot -16.8031 -12.4406
ltoes -1.65134
4547
root 0.614816 15.7854 -5.28936 370.338 -16.1592 0.177395
lowerback -6.38933 -1.15072 2.00869
upperback -7.48162 -1.66026 -0.36042
thorax -4.24153 -0.962671 -1.53679
lowerneck -14.1361 3.85079 8.23851
upperneck 38.3368 6.27616 -8.2225
head 16.8106 2.59468 -4.0442
rclavicle -5.06241e-014 -1.23588e-014
rhumerus -38.2956 -6.03735 -75.7794
rradius 24.129
rwrist 14.8667
rhand -10.851 -6.66192
rfingers 7.12502
rthumb 15.164 -36.0863
lclavicle -5.06241e-014 -1.23588e-014
lhumerus -43.9241 13.1854 68.5882
lradius 31.345
lwrist -21.6932
lhand -7.97261 14.8193
lfingers 7.12502
lthumb 17.9352 44.0123
rfemur -19.2405 15.0334 13.1885
rtibia 24.221
rfoot -18.3471 1.00434
rtoes -4.15014
lfemur -18.2715 -17.7197 -10.1324
ltibia 26.551
lfoot -16.41 -12.0689
ltoes -2.38613
4548
root 0.5401 15.796 -5.3149 370.443 -15.2592 0.123088
lowerback -6.3915 -1.17086 2.0918
upperback -7.47591 -1.68687 -0.344179
thorax -4.23787 -0.978428 -1.56726
lowerneck -14.1242 3.94954 8.3396
upperneck 38.3715 6.41249 -8.21344
head 16.8497 2.67358 -4.03343
rclavicle 6.47471e-014 5.90453e-015
rhumerus -37.8984 -5.77356 -75.7142
rradius 24.3088
rwrist 14.4426
rhand -11.0275 -6.7047
rfingers 7.12502
rthumb 14.994 -36.1419
lclavicle 6.47471e-014 5.90453e-015
lhumerus -44.2073 13.4492 68.1051
lradius 31.3219
lwrist -21.008
lhand -7.92481 15.0167
lfingers 7.12502
lthumb 17.9812 44.2055
rfemur -18.9676 14.7783 13.6448
rtibia 23.9084
rfoot -18.2149 0.420145
rtoes -3.93612
lfemur -19.3523 -17.3585 -9.93982
ltibia 28.1269
lfoot -16.0395 -11.3647
ltoes -3.65794
